<?xml version="1.0" encoding="UTF-8" standalone="no"?>
<svg
   xmlns:dc="http://purl.org/dc/elements/1.1/"
   xmlns:cc="http://creativecommons.org/ns#"
   xmlns:rdf="http://www.w3.org/1999/02/22-rdf-syntax-ns#"
   xmlns:svg="http://www.w3.org/2000/svg"
   xmlns="http://www.w3.org/2000/svg"
   xmlns:sodipodi="http://sodipodi.sourceforge.net/DTD/sodipodi-0.dtd"
   xmlns:inkscape="http://www.inkscape.org/namespaces/inkscape"
   xml:space="preserve"
   version="1.1"
   style="clip-rule:evenodd;fill-rule:evenodd;image-rendering:optimizeQuality;shape-rendering:geometricPrecision;text-rendering:geometricPrecision"
   viewBox="0 0 729.4353 709.26196"
   x="0px"
   y="0px"
   id="svg883"
   sodipodi:docname="phys1.svg"
   inkscape:version="0.92.3 (unknown)"
   width="729.4353"
   height="709.26196"><metadata
     id="metadata887"><rdf:RDF><cc:Work
         rdf:about=""><dc:format>image/svg+xml</dc:format><dc:type
           rdf:resource="http://purl.org/dc/dcmitype/StillImage" /><dc:title></dc:title></cc:Work></rdf:RDF></metadata><sodipodi:namedview
     pagecolor="#ffffff"
     bordercolor="#666666"
     borderopacity="1"
     objecttolerance="10"
     gridtolerance="10"
     guidetolerance="10"
     inkscape:pageopacity="0"
     inkscape:pageshadow="2"
     inkscape:window-width="1920"
     inkscape:window-height="968"
     id="namedview885"
     showgrid="false"
     inkscape:zoom="0.88676056"
     inkscape:cx="390.46456"
     inkscape:cy="265.85446"
     inkscape:window-x="0"
     inkscape:window-y="27"
     inkscape:window-maximized="1"
     inkscape:current-layer="svg883"
     fit-margin-top="0"
     fit-margin-left="0"
     fit-margin-right="0"
     fit-margin-bottom="0" /><defs
     id="defs873"><style
       type="text/css"
       id="style871">
   
    .fil0 {fill:green}</style></defs><g
     id="g877"
     transform="translate(-0.03146434,-0.34251936)"><path
       class="fil0"
       d="m 610,420 c 24,-15 46,-30 64,-46 24,7 46,-18 36,-41 C 785,216 625,181 540,179 533,-29 410,-62 301,115 281,104 262,95 243,88 238,63 208,55 191,74 37,47 66,195 119,288 -71,401 -23,525 189,530 c 0,13 1,26 3,38 -7,4 -14,11 -17,19 -4,19 8,37 28,38 47,157 166,65 225,-31 187,102 290,18 182,-174 z M 434,374 c 10,-38 -13,-77 -52,-87 -37,-11 -77,12 -87,50 -10,38 13,78 50,88 39,10 78,-13 89,-51 z m 250,-59 c -21,-2 -36,16 -31,37 -16,14 -36,29 -58,42 -18,-29 -40,-58 -65,-88 5,-34 9,-67 10,-97 55,1 201,18 144,106 z M 328,488 c -34,-29 -67,-61 -97,-95 8,-47 21,-94 37,-139 44,-14 86,-26 132,-33 36,29 68,60 98,94 -9,48 -21,94 -37,140 -44,14 -87,25 -133,33 z m 118,3 c -9,22 -19,43 -29,62 -19,-13 -37,-25 -57,-39 29,-7 57,-14 86,-23 z m -158,3 c -23,3 -46,4 -68,6 0,-23 2,-45 5,-68 20,22 42,42 63,62 z M 205,363 c -16,-22 -32,-42 -45,-63 22,-12 46,-22 71,-33 -9,32 -18,63 -26,96 z m 78,-146 c 9,-22 19,-42 29,-61 18,12 38,24 57,39 -29,7 -58,13 -86,22 z m 157,-2 c 25,-4 47,-5 69,-6 -1,21 -3,43 -6,67 -20,-21 -40,-41 -63,-61 z m 83,130 c 17,22 32,43 45,64 -22,12 -45,22 -71,32 11,-32 19,-63 26,-96 z M 509,179 c -32,0 -66,4 -100,9 C 381,166 354,146 327,130 420,-20 503,2 509,179 Z M 185,102 c 7,22 31,28 48,14 17,7 35,15 53,25 -16,26 -29,56 -41,89 -36,13 -70,28 -100,44 C 110,210 62,82 185,102 Z m -51,212 c 18,29 40,59 65,88 -6,34 -9,66 -9,97 C 11,495 -29,411 134,314 Z m 96,297 c 9,-14 6,-31 -7,-41 -2,-12 -3,-26 -3,-40 31,-1 65,-3 100,-10 28,23 55,42 81,59 -45,72 -134,165 -171,32 z m 214,-44 c 14,-26 28,-57 40,-89 36,-13 70,-27 100,-43 92,165 17,218 -140,132 z"
       id="path875"
       inkscape:connector-curvature="0"
       style="fill:#0552b5" /></g></svg>